<svg id="Layer_1" data-name="Layer 1" xmlns="http://www.w3.org/2000/svg" viewBox="0 0 96.38 79.1"><defs><style>.cls-1{fill:#fff;}</style></defs><title>logo-nen-trang</title><path class="cls-1" d="M72.72,15.83A47.79,47.79,0,0,0,55,10.4L53.65,32l9.88,9.89Z" transform="translate(-1.81 -10.4)"/><path class="cls-1" d="M92.23,35.11A48.37,48.37,0,0,0,81,21.46L67.81,46.18l7,7Z" transform="translate(-1.81 -10.4)"/><path class="cls-1" d="M60.71,74.09,98.16,59.42c0-.36,0-.72,0-1.09A48.19,48.19,0,0,0,95.9,43.64L76,58.78l-15,15Z" transform="translate(-1.81 -10.4)"/><path class="cls-1" d="M56.9,77.9l-.38.38,36.35,2A48,48,0,0,0,97.31,67.5L58.59,76.21l-1.25,1.25Z" transform="translate(-1.81 -10.4)"/><path class="cls-1" d="M44.92,10.41a47.87,47.87,0,0,0-17.73,5.47l9.67,27.45,9.49-9.5Z" transform="translate(-1.81 -10.4)"/><path class="cls-1" d="M18.91,21.52A48.58,48.58,0,0,0,7.73,35.18l18.32,19,6.7-6.71Z" transform="translate(-1.81 -10.4)"/><path class="cls-1" d="M31.92,64.91,4.08,43.71A48,48,0,0,0,1.81,58.33c0,.38,0,.76,0,1.14l40.5,15.86-1.9-1.9Z" transform="translate(-1.81 -10.4)"/><path class="cls-1" d="M44.11,77.1l-.33-.33L2.7,67.53A47.84,47.84,0,0,0,7.12,80.32l38.06-2.14-.63-.64Z" transform="translate(-1.81 -10.4)"/><path class="cls-1" d="M54.77,47.36,50.9,44V76.24a1.64,1.64,0,0,0,1.15-.47l.38-.38.3-.31,2-2V47.36Z" transform="translate(-1.81 -10.4)"/><polygon class="cls-1" points="56.83 39.8 56.83 58.77 57 58.6 60.7 54.91 60.7 43.22 56.83 39.8"/><polygon class="cls-1" points="44.03 50.47 42.55 49.16 41.36 48.11 41.36 58.77 42.55 59.97 42.55 52.16 44.03 53.46 44.03 61.45 44.12 61.54 45.23 62.64 45.23 51.52 44.03 50.47"/><path class="cls-1" d="M42.38,70.31l3,3,.36.37,1.83,1.82,3,3,.36.36,1.59-1.58.31-.32,3-3,.36-.37,3-3,14-14L50.9,34.35,28.66,56.59ZM31.73,55.45l18-18a1.62,1.62,0,0,1,2.29,0l18,18a1.61,1.61,0,0,1,0,2.28L62.51,65.3,58.81,69l-.17.17-2.7,2.7-.35.35-.82.82-2,2-.3.31-.38.38a1.64,1.64,0,0,1-1.15.47,2,2,0,0,1-.34,0,1.69,1.69,0,0,1-.8-.43l-2.07-2.08L47,73l-1.11-1.1-.09-.1-.26-.25-1.22-1.22-1.19-1.2-.45-.45L39.3,65.3l-7.57-7.57A1.61,1.61,0,0,1,31.73,55.45Z" transform="translate(-1.81 -10.4)"/><path class="cls-1" d="M47,47.36V73l.65.65,2.07,2.08a1.69,1.69,0,0,0,.8.43,2,2,0,0,0,.34,0V44Zm3.15,23.15-2.44,2.14V69.84l2.44-2.15Zm0-5.2-2.44,2.15V64.64l2.44-2.14Zm0-5.2-2.44,2.15V59.45l2.44-2.15Zm0-5.19-2.44,2.14V54.25l2.44-2.15Zm0-5.2-2.44,2.15V49.05l2.44-2.14Z" transform="translate(-1.81 -10.4)"/><path class="cls-1" d="M54.77,53.61V73l.82-.82.35-.35,2.7-2.7v-19Zm.71,1.18L57,53.49V56.3l-1.48,1.3Zm0,11.19V63.17L57,61.86v2.81Zm2.45,2.25-1.47,1.3V66.72l1.47-1.31Zm-1.47-7.08V58.34L57.93,57v2.81Z" transform="translate(-1.81 -10.4)"/><path class="cls-1" d="M39.3,61.92V65.3l3.42,3.42.45.45V58.51ZM42,64,40.5,65.3V62.49L42,61.19Z" transform="translate(-1.81 -10.4)"/><path class="cls-1" d="M50,86.79A193.77,193.77,0,0,1,83.57,89.5c-7.47-3.6-19.72-6-33.57-6s-26.1,2.35-33.57,6A193.77,193.77,0,0,1,50,86.79Z" transform="translate(-1.81 -10.4)"/></svg>