<svg id="Layer_1" data-name="Layer 1" xmlns="http://www.w3.org/2000/svg" viewBox="0 0 152.9 148.83"><defs><style>.cls-1{fill:#6e1517;}.cls-2{fill:#f6921e;}.cls-3{fill:#a6c539;}</style></defs><title>logo</title><path class="cls-1" d="M17.7,134.8V146H14.14V134.8H10.86v-2.69H21v2.69Z" transform="translate(-10.86 -12.31)"/><path class="cls-1" d="M33.32,146H29.74v-5.75H26V146H22.45V132.1H26v5.64h3.75V132.1h3.58Z" transform="translate(-10.86 -12.31)"/><path class="cls-1" d="M38.15,137.74h3.62l-.22,2.53h-3.4v3H42.7V146H34.57V132.1H42.7v2.69H38.15Zm3.48-6.4h-2l-1-1.26-1,1.26h-2l2-2.56h2.05Zm-.7-1.81L42.17,127H44.6l-2.16,2.58Z" transform="translate(-10.86 -12.31)"/><path class="cls-1" d="M58.6,145.61c-.49.12-.9.21-1.24.27s-.9.12-1.37.16-1.11.07-1.69.07q-4.39,0-5.75-3.19a9.71,9.71,0,0,1-.44-3.44v-.91a7.46,7.46,0,0,1,.77-4Q50.44,132,54.32,132a18.66,18.66,0,0,1,3.52.37l.3,2.74a22.1,22.1,0,0,0-3.47-.33,3.44,3.44,0,0,0-2.44.61c-.45.28-.68,1.19-.68,2.75v2.16c0,1.29.21,2.06.62,2.32.31.46,1.11.68,2.41.68h.64v-3.06h-2l.28-2.51H58.6Z" transform="translate(-10.86 -12.31)"/><path class="cls-1" d="M63.47,146H59.93V132.1h3.54Z" transform="translate(-10.86 -12.31)"/><path class="cls-1" d="M76.8,138.61v.9a9.19,9.19,0,0,1-.44,3.41,4.7,4.7,0,0,1-2.18,2.43,8.62,8.62,0,0,1-7.08,0,4.75,4.75,0,0,1-2.17-2.43,8.86,8.86,0,0,1-.46-3.41v-.9c0-2,.26-3.31.79-4a4.63,4.63,0,0,1,1.84-1.78,8.42,8.42,0,0,1,7.08,0A4.75,4.75,0,0,1,76,134.58,7.43,7.43,0,0,1,76.8,138.61Zm-6.16,4.7c1.13,0,1.84-.24,2.14-.67.34-.27.52-1.08.52-2.4v-2.11c0-1.55-.2-2.45-.58-2.69a3.78,3.78,0,0,0-4.15,0c-.44.27-.65,1.14-.65,2.6v2.14q0,2,.57,2.46C68.79,143.07,69.51,143.3,70.64,143.31Zm-1.37-12,1.33-2.86h2.61l-2.31,2.86Zm4.93,3v-1a1.59,1.59,0,0,0,1.11-1l-.1,0a1.26,1.26,0,0,1-.59-.31,1.11,1.11,0,0,1-.19-.76,1,1,0,0,1,.31-.73,1,1,0,0,1,.43-.16,1.6,1.6,0,0,1,.33,0l.37,0a1.11,1.11,0,0,1,.42.17.7.7,0,0,1,.22.37,2,2,0,0,1,0,.43,1.65,1.65,0,0,1,0,.32l-.06.21A3.68,3.68,0,0,1,74.2,134.35Z" transform="translate(-10.86 -12.31)"/><path class="cls-1" d="M81.34,146H77.8V132.1h3.54Z" transform="translate(-10.86 -12.31)"/><path class="cls-1" d="M98,146H94.46l-4.19-7.41V146H86.73V132.11h3.54l4.19,7.33v-7.33H98Z" transform="translate(-10.86 -12.31)"/><path class="cls-1" d="M110.13,146h-3.58v-5.75H102.8V146H99.26V132.1h3.54v5.64h3.75V132.1h3.58Z" transform="translate(-10.86 -12.31)"/><path class="cls-1" d="M119.72,132.11l5,13.89h-3.91l-.65-2.13h-4.84l-.65,2.13H110.8l5-13.89Zm-1.17-.77-1.34-2.86H114.6l2.32,2.86Zm-2.55,10h3.53l-1.76-6Z" transform="translate(-10.86 -12.31)"/><path class="cls-1" d="M138.23,135a8,8,0,0,1,.17,1.73v.65a6.3,6.3,0,0,1-.32,2.46q-1,2.25-4.17,2.25a11.36,11.36,0,0,1-1.46-.07l-1-.12V146h-3.47V132.11l4.7-.09h1.27c1.94,0,3.26.62,3.93,1.84A4.53,4.53,0,0,1,138.23,135Zm-3,1.47a2.37,2.37,0,0,0-.34-1.48,1.64,1.64,0,0,0-1-.42,12.39,12.39,0,0,0-2.46,0v4.75a13.5,13.5,0,0,0,2.57.12,1.17,1.17,0,0,0,.84-.35,2,2,0,0,0,.43-1.42Z" transform="translate(-10.86 -12.31)"/><path class="cls-1" d="M150.47,146h-3.58v-5.75h-3.75V146H139.6V132.1h3.54v5.64h3.75V132.1h3.58Z" transform="translate(-10.86 -12.31)"/><path class="cls-1" d="M163.76,138.61v.9a9.19,9.19,0,0,1-.44,3.41,4.74,4.74,0,0,1-2.18,2.43,8.62,8.62,0,0,1-7.08,0,4.75,4.75,0,0,1-2.17-2.43,8.86,8.86,0,0,1-.46-3.41v-.9c0-2,.26-3.31.79-4a4.63,4.63,0,0,1,1.84-1.78,8.42,8.42,0,0,1,7.08,0,4.75,4.75,0,0,1,1.84,1.78A7.43,7.43,0,0,1,163.76,138.61Zm-3.18-7.27h-1.94l-1-1.26-1,1.26h-2l2-2.56h2.07Zm-3,12c1.13,0,1.84-.24,2.14-.67.34-.27.52-1.08.52-2.4v-2.11c0-1.55-.2-2.45-.58-2.69a3.78,3.78,0,0,0-4.15,0c-.44.27-.65,1.14-.65,2.6v2.14q0,2,.57,2.46C155.75,143.07,156.47,143.3,157.6,143.31Zm2.19-13.78L161,127h2.42l-2.15,2.58Z" transform="translate(-10.86 -12.31)"/><path class="cls-1" d="M39.28,154.3v6.84H37.1V154.3h-2v-1.64h6.2v1.64Z" transform="translate(-10.86 -12.31)"/><path class="cls-1" d="M44.35,161.14H42.2v-8.49h2.15Zm-1.68-8.95.81-1.74h1.59l-1.41,1.74Z" transform="translate(-10.86 -12.31)"/><path class="cls-1" d="M52,161.14H49.83l-2.56-4.53v4.53H45.11v-8.48h2.16l2.56,4.47v-4.47H52Z" transform="translate(-10.86 -12.31)"/><path class="cls-1" d="M55.71,158.88v-1.54h5.1v1.54Z" transform="translate(-10.86 -12.31)"/><path class="cls-1" d="M68.75,154.3v6.84H66.57V154.3h-2v-1.64h6.19v1.64Z" transform="translate(-10.86 -12.31)"/><path class="cls-1" d="M77.39,161.14,77,159.83H74.06l-.4,1.31H71.27l3.07-8.48h2.37l3.08,8.48Zm0-8.95H76.17l-.64-.77-.62.77h-1.2l1.2-1.56h1.26Zm-1.83,2.44-1.09,3.64H76.6Z" transform="translate(-10.86 -12.31)"/><path class="cls-1" d="M89,161.14l-.72-6-1.73,6H85l-1.73-6-.72,6-2.46,0,1.27-8.46h3.3l1.13,4,1.15-4h3.22l1.29,8.49Z" transform="translate(-10.86 -12.31)"/><path class="cls-1" d="M95.05,158.88v-1.54h5.11v1.54Z" transform="translate(-10.86 -12.31)"/><path class="cls-1" d="M106.43,154.3v6.84h-2.18V154.3h-2v-1.64h6.2v1.64Z" transform="translate(-10.86 -12.31)"/><path class="cls-1" d="M116,161.14h-2.18v-3.51h-2.29v3.51h-2.16v-8.49h2.16v3.44h2.29v-3.44H116Z" transform="translate(-10.86 -12.31)"/><path class="cls-1" d="M121.8,152.66l3.07,8.48h-2.38l-.4-1.31h-3l-.4,1.31h-2.38l3.07-8.48Zm-.72-.47-.81-1.74h-1.59l1.41,1.74Zm-1.55,6.08h2.16l-1.08-3.64Z" transform="translate(-10.86 -12.31)"/><path class="cls-1" d="M132.13,161.14H130l-2.56-4.53v4.53h-2.16v-8.48h2.16l2.56,4.47v-4.47h2.17Z" transform="translate(-10.86 -12.31)"/><path class="cls-1" d="M139.51,161.14h-2.18v-3.51h-2.28v3.51h-2.16v-8.49h2.16v3.44h2.28v-3.44h2.18Z" transform="translate(-10.86 -12.31)"/><path class="cls-2" d="M117.21,19.46a62.79,62.79,0,0,0-23.36-7.15L92.11,40.77l13,13Z" transform="translate(-10.86 -12.31)"/><path class="cls-2" d="M142.89,44.83a63.55,63.55,0,0,0-14.76-18L110.75,59.41l9.19,9.19Z" transform="translate(-10.86 -12.31)"/><path class="cls-2" d="M101.41,96.15l49.3-19.31c0-.48,0-1,0-1.43a63.38,63.38,0,0,0-3-19.34L121.56,76,101.8,95.76Z" transform="translate(-10.86 -12.31)"/><path class="cls-2" d="M96.39,101.17l-.49.49,47.85,2.69a63.12,63.12,0,0,0,5.83-16.87L98.61,99,97,100.58Z" transform="translate(-10.86 -12.31)"/><path class="cls-2" d="M80.62,12.32a63.12,63.12,0,0,0-23.34,7.2L70,55.66l12.5-12.51Z" transform="translate(-10.86 -12.31)"/><path class="cls-2" d="M46.39,27a63.67,63.67,0,0,0-14.72,18l24.11,25,8.82-8.83Z" transform="translate(-10.86 -12.31)"/><path class="cls-2" d="M63.51,84.07,26.86,56.16a63.09,63.09,0,0,0-3,19.25c0,.5,0,1,0,1.49L77.22,97.78l-2.49-2.49Z" transform="translate(-10.86 -12.31)"/><path class="cls-2" d="M79.55,100.11l-.43-.43L25,87.51a63,63,0,0,0,5.83,16.84L81,101.53l-.83-.83Z" transform="translate(-10.86 -12.31)"/><path class="cls-2" d="M93.59,61,88.5,56.48V99a2.13,2.13,0,0,0,1.5-.62l.5-.5.4-.4,2.69-2.69V61Z" transform="translate(-10.86 -12.31)"/><polygon class="cls-2" points="87.83 52.4 87.83 77.37 88.05 77.14 92.92 72.28 92.92 56.89 87.83 52.4"/><polygon class="cls-2" points="70.98 66.43 69.03 64.72 67.46 63.33 67.46 77.37 69.03 78.94 69.03 68.66 70.98 70.38 70.98 80.89 71.1 81.01 72.55 82.46 72.55 67.82 70.98 66.43"/><path class="cls-3" d="M77.28,91.17l3.93,3.93.48.48,2.4,2.4L88,101.91l.48.48,2.08-2.08.42-.42L94.93,96l.47-.48,3.93-3.92,18.45-18.45L88.5,43.83,59.22,73.11Zm-14-19.56L87,47.87a2.12,2.12,0,0,1,3,0l23.74,23.74a2.12,2.12,0,0,1,0,3l-10,10-4.87,4.87-.23.23-3.55,3.55-.46.46-1.08,1.08L90.9,97.46l-.4.4-.5.5a2.13,2.13,0,0,1-1.5.62,2.4,2.4,0,0,1-.46,0,2.19,2.19,0,0,1-1-.57l-2.73-2.74-.86-.85L82,93.32l-.13-.13-.33-.33-1.61-1.61-1.57-1.57-.6-.6-4.5-4.5-10-10A2.1,2.1,0,0,1,63.26,71.61Z" transform="translate(-10.86 -12.31)"/><path class="cls-3" d="M83.41,61v33.8l.86.85L87,98.36a2.19,2.19,0,0,0,1,.57,2.4,2.4,0,0,0,.46,0V56.48Zm4.14,30.46-3.2,2.83V90.55l3.2-2.82Zm0-6.84-3.2,2.83V83.71l3.2-2.82Zm0-6.84-3.2,2.83V76.87l3.2-2.82Zm0-6.84-3.2,2.83V70l3.2-2.82Zm0-6.84-3.2,2.83V63.19l3.2-2.82Z" transform="translate(-10.86 -12.31)"/><path class="cls-3" d="M93.59,69.2V94.77l1.08-1.08.46-.46,3.55-3.55v-25Zm.93,1.55,2-1.72v3.7l-2,1.72Zm0,14.72v-3.7l2-1.71v3.7Zm3.23,3-1.94,1.72v-3.7l1.94-1.72Zm-1.94-9.31v-3.7l1.94-1.71v3.7Z" transform="translate(-10.86 -12.31)"/><path class="cls-3" d="M73.22,80.13v4.45l4.5,4.5.6.6v-14Zm3.52,2.74L74.8,84.59v-3.7l1.94-1.72Z" transform="translate(-10.86 -12.31)"/><path class="cls-1" d="M87.31,112.87a253.65,253.65,0,0,1,44.18,3.57c-9.82-4.75-25.94-7.84-44.18-7.84S53,111.69,43.12,116.44A253.85,253.85,0,0,1,87.31,112.87Z" transform="translate(-10.86 -12.31)"/></svg>