<?xml version="1.0" encoding="UTF-8"?>
<svg width="24px" height="23px" viewBox="0 0 24 23" version="1.1" xmlns="http://www.w3.org/2000/svg" xmlns:xlink="http://www.w3.org/1999/xlink">
    <!-- Generator: sketchtool 50 (54983) - http://www.bohemiancoding.com/sketch -->
    <title>50889E55-8040-4AAE-8DA2-BEB104A73A97</title>
    <desc>Created with sketchtool.</desc>
    <defs></defs>
    <g id="Search" stroke="none" stroke-width="1" fill="none" fill-rule="evenodd">
        <g id="RV---Search---Nha-Dat" transform="translate(-400.000000, -632.000000)" fill="#FFFFFF">
            <g id="Group-32-Copy" transform="translate(400.000000, 632.000000)">
                <path d="M1.13360324,10.2471331 C1.23559839,10.6269632 1.29388133,10.8168783 1.38130575,11.0214022 C1.70186193,11.8248891 2.21183768,12.4676786 2.88209153,12.9059441 C3.65434052,13.4172539 4.96570673,13.7240398 6.27707295,13.7240398 C7.36987813,13.7240398 8.55010772,13.5049071 9.30778598,13.1542946 C9.8469032,12.9059441 10.3568789,12.4968963 10.6774351,12.0586307 C11.0562743,11.5473209 11.2602646,10.8607049 11.2602646,10.1156534 C11.2602646,9.26834 10.9105669,8.5086797 10.298596,7.95354333 C9.78862026,7.51527777 9.30778598,7.31075385 8.4189711,7.17927418 C10.0946057,6.78483518 10.9251376,5.82065095 10.9251376,4.27211265 C10.9251376,3.43940809 10.6482937,2.7381832 10.1091764,2.19765568 C9.27864451,1.39416883 7.96727829,0.955903272 6.3790681,0.955903272 C4.60143834,0.955903272 3.26093065,1.45260424 2.37211577,2.41678846 C1.90585223,2.92809828 1.67272046,3.36636383 1.39587648,4.27211265 L4.5431554,4.72498706 C4.76171643,3.79002054 5.28626292,3.38097269 6.32078515,3.38097269 C7.28245371,3.38097269 7.83614167,3.8338471 7.83614167,4.6227251 C7.83614167,5.55769162 7.15131709,6.02517488 5.7670972,6.02517488 C5.1988385,6.02517488 4.71800423,5.99595718 4.22259921,5.93752177 L4.22259921,8.45024429 C4.7908579,8.39180889 5.44654101,8.36259118 6.0147997,8.36259118 C6.5830584,8.36259118 7.0347512,8.43563544 7.36987813,8.55250626 C7.86528314,8.74242133 8.15669785,9.20990459 8.15669785,9.80886752 C8.15669785,10.7000075 7.4427318,11.2697527 6.30621442,11.2697527 C5.6068191,11.2697527 5.02398968,11.0506199 4.63057981,10.6415721 C4.39744804,10.3932216 4.31002363,10.1886977 4.22259921,9.70660556 L1.13360324,10.2471331 Z M12.9213284,11.3281881 L12.9213284,3.36636383 C12.9213284,2.37296191 12.892187,1.89086979 12.7901918,1.21886261 C13.3730212,1.24808031 13.7372896,1.26268916 14.9466607,1.26268916 L17.9919445,1.26268916 C19.784145,1.26268916 21.2266478,1.75939013 22.2028871,2.7089655 C23.2665508,3.76080284 23.805668,5.29473228 23.805668,7.23770959 C23.805668,9.2391223 23.2228386,10.846096 22.1154627,11.9563687 C21.1392234,12.920553 19.7550035,13.4172539 18.0210859,13.4172539 L14.9466607,13.4172539 C13.824714,13.4172539 13.4167334,13.4318628 12.8047625,13.4610805 C12.892187,12.818291 12.9213284,12.3361989 12.9213284,11.3281881 Z M15.8063341,10.8607049 L17.7588127,10.8607049 C18.7059105,10.8607049 19.3761644,10.6123544 19.9007108,10.0864357 C20.498111,9.47286393 20.8186672,8.49407085 20.8186672,7.28153614 C20.8186672,6.03978373 20.5418232,5.13403491 19.9735645,4.56428969 C19.4635888,4.05297987 18.7641935,3.81923824 17.7151005,3.81923824 L15.8063341,3.81923824 L15.8063341,10.8607049 Z" id="3D"></path>
                <path d="M3.58333905,22.820536 C3.6505867,22.5314192 3.67940712,22.4416934 3.87154326,21.9332466 L5.35099156,18.1448202 C5.53352089,17.6563126 5.64880258,17.3771653 5.78329788,17.0980181 L4.3230632,17.0980181 C4.28463597,17.3771653 4.23660194,17.5566171 4.08289302,18.0251857 L3.1029987,20.9163532 C3.03575105,21.1157441 2.95889659,21.3649827 2.89164894,21.5843126 C2.8340081,21.3749522 2.74754683,21.0758659 2.68990599,20.9163532 L1.71001167,18.0251857 C1.58512317,17.6563126 1.49866191,17.3173481 1.46984149,17.0980181 L0,17.0980181 C0.192136142,17.516739 0.345845056,17.8856121 0.451519934,18.1448202 L1.92136142,21.9332466 C2.11349756,22.4317238 2.15192479,22.5513583 2.20956564,22.820536 L3.58333905,22.820536 Z M6.47498799,14.8847795 L6.47498799,16.1509115 L7.88718864,16.1509115 L7.88718864,14.8847795 L6.47498799,14.8847795 Z M6.47498799,17.0980181 C6.53262883,17.5067694 6.55184245,17.8457339 6.55184245,18.3940588 L6.55184245,21.5244954 C6.55184245,22.0229725 6.53262883,22.3719066 6.47498799,22.820536 L7.87758183,22.820536 C7.82954779,22.4018152 7.81033418,22.0628507 7.81033418,21.5145258 L7.81033418,18.4040283 C7.81033418,17.7958862 7.82954779,17.4668912 7.87758183,17.0980181 L6.47498799,17.0980181 Z M14.2468949,20.288272 L10.0679339,20.288272 C10.1159679,20.8365969 10.2024291,21.1157441 10.4233857,21.4048609 C10.7019831,21.7637644 11.1342894,21.9631553 11.6242366,21.9631553 C12.0949702,21.9631553 12.498456,21.7837035 12.7770535,21.4646781 C12.8923351,21.3251045 12.9595828,21.2154395 13.0556509,20.9462619 L14.1892541,21.3251045 C13.9682975,21.8036426 13.843409,21.9930639 13.6032389,22.2423025 C13.1036849,22.7507492 12.4312084,23.0099573 11.6242366,23.0099573 C9.92383174,23.0099573 8.84786935,21.8335512 8.84786935,19.9692466 C8.84786935,18.1248811 9.91422494,16.9185664 11.556989,16.9185664 C12.6809854,16.9185664 13.5648116,17.4967999 13.9490839,18.4937542 C14.1316133,18.9722923 14.1988609,19.3311958 14.2276813,20.0091248 C14.2276813,20.0290639 14.2276813,20.0589725 14.2468949,20.288272 Z M10.0967543,19.3012872 L12.99801,19.3012872 C12.9307624,18.8626273 12.8154807,18.5934496 12.5753105,18.344211 C12.3159267,18.0750334 11.9892953,17.9454293 11.5377753,17.9454293 C10.7884444,17.9454293 10.2408564,18.4638456 10.0967543,19.3012872 Z M20.9716599,22.820536 C21.019694,22.5413888 21.067728,22.3519675 21.2118301,21.8734294 L22.2781857,18.3342415 C22.5279627,17.5067694 22.5471763,17.4270131 22.6720648,17.0980181 L21.2598641,17.0980181 C21.2406505,17.4170435 21.1637961,17.8557034 21.0485144,18.2843938 L20.5105332,20.2783025 C20.4913196,20.3480893 20.4240719,20.6671146 20.3952515,20.8066883 C20.3664311,20.9462619 20.3664311,20.9462619 20.3472175,21.0260182 C20.3280038,20.9362923 20.318397,20.9263228 20.2895766,20.7967187 C20.2319358,20.5873583 20.1839017,20.397937 20.1550813,20.3082111 L19.4441776,18.0451248 C19.3577163,17.756008 19.2328278,17.2874395 19.2040074,17.0980181 L18.1760791,17.0980181 C18.1472586,17.297409 18.0319769,17.756008 17.9359089,18.0451248 L17.2442188,20.2184852 C17.2057915,20.3381197 17.0424758,20.9263228 17.0232622,21.0260182 C16.9464077,20.637206 16.8887669,20.3580588 16.8503397,20.2284547 L16.3219653,18.2843938 C16.2162904,17.8955816 16.1298291,17.3871349 16.1106155,17.0980181 L14.6888081,17.0980181 C14.8233034,17.4668912 14.9577987,17.8756425 15.092294,18.3342415 L16.1490428,21.8734294 C16.3027517,22.3818761 16.3411789,22.5314192 16.3988197,22.820536 L17.5132094,22.820536 C17.5516366,22.6111756 17.6573115,22.2123939 17.7629863,21.8734294 L18.5027105,19.5405562 C18.5315309,19.4408608 18.6468126,19.0321095 18.6948466,18.8526578 C18.8005215,19.261409 18.8581624,19.480739 18.877376,19.5206172 L19.6171001,21.8734294 C19.7323818,22.2622416 19.8188431,22.581267 19.8572703,22.820536 L20.9716599,22.820536 Z" id="view"></path>
            </g>
        </g>
    </g>
</svg>