<svg xmlns="http://www.w3.org/2000/svg" width="150" height="150" viewBox="0 0 150 150">
    <g fill="none" fill-rule="evenodd" transform="translate(10 10)">
        <path fill="#30333A" fill-rule="nonzero" d="M93.916 50.488l-5.264-5.38A3.544 3.544 0 0 0 86.02 44c-1.033 0-1.91.37-2.633 1.108L57.994 71.1 46.613 59.43a3.544 3.544 0 0 0-2.632-1.108c-1.033 0-1.91.369-2.633 1.107l-5.264 5.38C35.36 65.55 35 66.446 35 67.5s.361 1.952 1.084 2.69l14.013 14.322 5.264 5.38A3.543 3.543 0 0 0 57.994 91c1.031 0 1.91-.37 2.632-1.108l5.264-5.38 28.026-28.643c.722-.739 1.084-1.636 1.084-2.69 0-1.055-.362-1.952-1.084-2.691z"/>
        <circle cx="65" cy="65" r="70" stroke="#30333A" stroke-width="10"/>
    </g>
</svg>
