<svg xmlns="http://www.w3.org/2000/svg" width="71" height="70" viewBox="0 0 71 70">
    <g fill="none" fill-rule="evenodd">
        <path fill="#337588" d="M48.65 21.36a4.323 4.323 0 0 0 6.114 0 4.31 4.31 0 0 0 0-6.108 4.323 4.323 0 0 0-6.114 0 4.315 4.315 0 0 0 0 6.107zm-3.058-9.164c3.378-3.376 8.853-3.376 12.233 0a8.632 8.632 0 0 1 0 12.217 8.65 8.65 0 0 1-12.233 0 8.632 8.632 0 0 1 0-12.217zM63.94 6.084L37.947 4.559 5.84 36.634a2.16 2.16 0 0 0 0 3.056l24.463 24.44a2.17 2.17 0 0 0 3.058 0l32.106-32.08-1.53-25.966zM34.889 68.71a4.327 4.327 0 0 1-6.114 0L1.255 41.217a4.317 4.317 0 0 1 0-6.11L36.42-.022 66.997 3.03l3.058 30.548L34.889 68.71z"/>
        <path fill="#337588" d="M20.59 40.414l-2.109 2.11-2.573-2.574 5.02-5.02 14.385 14.385-2.91 2.91L20.59 40.415zm12.698-7.51c.099-.154.232-.337.401-.548.169-.21.338-.4.506-.57.774-.773 1.586-1.36 2.437-1.76.85-.401 1.701-.62 2.552-.654a5.94 5.94 0 0 1 2.531.464c.837.344 1.62.882 2.352 1.613a7.35 7.35 0 0 1 1.53 2.226c.372.836.572 1.705.6 2.605.028.9-.13 1.803-.474 2.71-.345.907-.918 1.761-1.72 2.563-.801.801-1.617 1.385-2.446 1.75-.83.366-1.652.556-2.468.57a5.862 5.862 0 0 1-2.32-.422 7.22 7.22 0 0 1-2.025-1.244l3.037-3.038a3.132 3.132 0 0 0 1.75.633c.634.028 1.266-.274 1.9-.907.534-.534.797-1.192.79-1.972-.007-.78-.355-1.515-1.044-2.204-.76-.76-1.589-1.118-2.489-1.076-.9.042-1.835.548-2.805 1.519a17.259 17.259 0 0 0-1.466 1.677 34.79 34.79 0 0 0-1.382 1.93l-7.234-8.712 7.445-7.445 2.574 2.573-4.852 4.851 2.32 2.869z"/>
        <path stroke="#337588" stroke-linecap="square" d="M22.98 49.142l20.554-20.555"/>
    </g>
</svg>
