<?xml version="1.0" encoding="UTF-8"?>
<svg width="70px" height="70px" viewBox="0 0 70 70" version="1.1" xmlns="http://www.w3.org/2000/svg" xmlns:xlink="http://www.w3.org/1999/xlink">
    <!-- Generator: sketchtool 49.3 (51167) - http://www.bohemiancoding.com/sketch -->
    <title>6FCE16AF-BF46-444F-9EC7-036E70EC4379</title>
    <desc>Created with sketchtool.</desc>
    <defs></defs>
    <g id="User-Profile" stroke="none" stroke-width="1" fill="none" fill-rule="evenodd" opacity="0.100486866">
        <g id="RV---User---Favorite---Empty" transform="translate(-648.000000, -386.000000)" fill="#30333A">
            <path d="M661,438 L674,438 L674,434 L661,434 L661,438 Z M661,429 L674,429 L674,425 L661,425 L661,429 Z M683.50111,408 C681.01529,408 679,410.014254 679,412.496624 C679,414.985746 681.01529,417 683.50111,417 C685.98471,417 688,414.985746 688,412.496624 C688,410.014254 685.98471,408 683.50111,408 Z M683.002237,421 C678.030318,421 674,417.192476 674,412.496813 C674,407.805399 678.030318,404 683.002237,404 C687.971918,404 692,407.805399 692,412.496813 C692,417.192476 687.971918,421 683.002237,421 Z M709,412.105485 L682.998915,391 L657,412.105485 L657,449.800137 C657,451.012262 657.968229,452 659.166576,452 L678.667933,452 L678.667933,425.599445 L700.333695,425.599445 L700.333695,452 L706.833424,452 C708.0296,452 709,451.012262 709,449.800137 L709,412.105485 Z M683,452 L696,452 L696,430 L683,430 L683,452 Z M717.348234,415.956738 C716.479213,416.827101 715.069515,416.827101 714.200494,415.956738 L713.585393,415.464699 L713.585393,451.626316 C713.585393,454.042777 711.630642,456 709.216208,456 L700.477837,456 L678.631909,456 L656.783792,456 C654.369358,456 652.414607,454.042777 652.414607,451.626316 L652.414607,415.464699 L651.801695,415.956738 C650.930485,416.827101 649.520787,416.827101 648.651766,415.956738 C647.782745,415.086375 647.782745,413.678049 648.651766,412.805499 L681.359366,386.626815 C681.812483,386.171952 682.405694,385.981697 682.998906,386.001378 C683.594306,385.981697 684.187517,386.171952 684.640634,386.626815 L717.348234,412.805499 C718.217255,413.678049 718.217255,415.086375 717.348234,415.956738 Z" id="Page-1"></path>
        </g>
    </g>
</svg>