<svg xmlns="http://www.w3.org/2000/svg" width="85" height="70" viewBox="0 0 85 70">
    <path fill="#337588" fill-rule="evenodd" d="M42.484 32.593c0 3.616-2.361 6.696-6.417 7.266v3.258h-2.859v-3.258c-4.287-.533-6.648-3.333-6.648-3.333l2.327-3.437s2.56 2.657 5.886 2.657c1.793 0 3.421-.994 3.421-3.042 0-4.254-11.236-3.829-11.236-11.442 0-3.653 2.56-6.485 6.25-7.12v-3.333h2.859v3.26c3.856.353 5.851 2.587 5.851 2.587l-1.862 3.718s-2.26-2.197-5.22-2.197c-1.994 0-3.556 1.241-3.556 3.013 0 4.215 11.204 3.47 11.204 11.403zM63.75 8.082c0-1.489-1.187-2.695-2.656-2.695H7.969c-1.467 0-2.657 1.206-2.657 2.695v37.69c0 1.482 1.19 2.691 2.657 2.691h53.125c1.469 0 2.656-1.209 2.656-2.692V8.081zm0 45.765H5.312C2.38 53.847 0 51.435 0 48.463V5.387C0 2.417 2.38 0 5.313 0H63.75c2.935 0 5.313 2.418 5.313 5.387v43.076c0 2.972-2.378 5.384-5.313 5.384zM21.25 70c-2.933 0-5.31-2.412-5.31-5.387V59.23h5.31v2.69c0 1.488 1.19 2.694 2.656 2.694h53.125c1.47 0 2.656-1.206 2.656-2.695V24.234c0-1.488-1.187-2.695-2.656-2.695h-2.656v-5.381h5.313c2.935 0 5.312 2.412 5.312 5.381v43.074C85 67.588 82.623 70 79.687 70H21.25z"/>
</svg>
