<svg xmlns="http://www.w3.org/2000/svg" width="48" height="48" viewBox="0 0 48 48">
    <g fill="none" fill-rule="evenodd">
        <path fill="#C72528" d="M0 48h48V0H0z"/>
        <path fill="#FFF" d="M29.218 22.846c.486 0 .883-.077 1.19-.23.306-.155.562-.36.767-.616.332-.41.498-.859.498-1.346 0-.59-.192-1.077-.575-1.462-.41-.461-1.036-.692-1.88-.692h-11.7c-.383 0-.575.192-.575.577v3.77h12.275zM16.943 38H10V13.615C10 12.54 10.575 12 11.726 12H30.14c1.611 0 2.94.225 3.99.673 1.048.45 1.93 1.045 2.646 1.789a7.55 7.55 0 0 1 1.516 2.327c.37.884.556 1.814.556 2.788a8.272 8.272 0 0 1-.537 2.98c-.359.937-.998 1.738-1.918 2.405.869.513 1.502 1.166 1.899 1.961.396.796.594 1.936.594 3.423v5.192c0 .565.007 1.026.02 1.385.012.36.043.718.095 1.077h-7.02a12.861 12.861 0 0 1-.114-1.731v-5.192c0-.82-.218-1.41-.653-1.77-.435-.358-1.164-.538-2.186-.538H16.943V38z"/>
    </g>
</svg>
