<svg id="Layer_1" data-name="Layer 1" xmlns="http://www.w3.org/2000/svg" viewBox="0 0 126.87 104.13"><defs><style>.cls-1{fill:#f6921e;}.cls-2{fill:#a6c539;}.cls-3{fill:#6e1517;}</style></defs><title>logo-ko-chu</title><path class="cls-1" d="M112.21,21.82a63,63,0,0,0-23.36-7.15L87.11,43.13l13,13Z" transform="translate(-18.87 -14.67)"/><path class="cls-1" d="M137.89,47.19a63.55,63.55,0,0,0-14.76-18L105.75,61.77,114.94,71Z" transform="translate(-18.87 -14.67)"/><path class="cls-1" d="M96.41,98.51l49.3-19.31c0-.47,0-1,0-1.43a63.38,63.38,0,0,0-3-19.34L116.56,78.36,96.8,98.12Z" transform="translate(-18.87 -14.67)"/><path class="cls-1" d="M91.39,103.53l-.49.49,47.85,2.7a63.31,63.31,0,0,0,5.83-16.88l-51,11.47L92,102.94Z" transform="translate(-18.87 -14.67)"/><path class="cls-1" d="M75.62,14.69a62.93,62.93,0,0,0-23.34,7.19L65,58l12.5-12.5Z" transform="translate(-18.87 -14.67)"/><path class="cls-1" d="M41.39,29.31a63.8,63.8,0,0,0-14.72,18l24.11,25,8.82-8.83Z" transform="translate(-18.87 -14.67)"/><path class="cls-1" d="M58.51,86.43,21.86,58.52a63.14,63.14,0,0,0-3,19.25c0,.5,0,1,0,1.49l53.31,20.88-2.49-2.49Z" transform="translate(-18.87 -14.67)"/><path class="cls-1" d="M74.55,102.47l-.43-.43L20,89.87a63,63,0,0,0,5.83,16.84L76,103.89l-.83-.83Z" transform="translate(-18.87 -14.67)"/><path class="cls-1" d="M88.59,63.33,83.5,58.84v42.5a2.13,2.13,0,0,0,1.5-.62l.5-.5.4-.4,2.69-2.69V63.33Z" transform="translate(-18.87 -14.67)"/><polygon class="cls-1" points="74.81 52.4 74.81 77.37 75.03 77.14 79.9 72.28 79.9 56.89 74.81 52.4"/><polygon class="cls-1" points="57.96 66.43 56.02 64.72 54.44 63.33 54.44 77.37 56.02 78.94 56.02 68.66 57.96 70.38 57.96 80.89 58.08 81.01 59.53 82.46 59.53 67.82 57.96 66.43"/><path class="cls-2" d="M72.28,93.53l3.93,3.93.48.48,2.4,2.4L83,104.27l.48.48,2.08-2.08.42-.42,3.93-3.93.47-.47,3.93-3.93,18.45-18.45L83.5,46.19,54.22,75.47ZM58.26,74,82,50.23a2.12,2.12,0,0,1,3,0L108.74,74a2.13,2.13,0,0,1,0,3l-10,10-4.87,4.86-.23.23-3.55,3.55-.46.46-1.08,1.08L85.9,99.82l-.4.4-.5.5a2.13,2.13,0,0,1-1.5.62,2.4,2.4,0,0,1-.46,0,2.19,2.19,0,0,1-1-.57L79.27,98l-.86-.86L77,95.68l-.13-.13-.33-.33-1.61-1.61L73.32,92l-.6-.6L68.22,87l-10-10A2.11,2.11,0,0,1,58.26,74Z" transform="translate(-18.87 -14.67)"/><path class="cls-2" d="M78.41,63.33v33.8l.86.86L82,100.72a2.19,2.19,0,0,0,1,.57,2.4,2.4,0,0,0,.46,0V58.84Zm4.14,30.46-3.2,2.83V92.91l3.2-2.82Zm0-6.84-3.2,2.83V86.07l3.2-2.82Zm0-6.84-3.2,2.83V79.23l3.2-2.82Zm0-6.84-3.2,2.83V72.39l3.2-2.82Zm0-6.84-3.2,2.83V65.55l3.2-2.82Z" transform="translate(-18.87 -14.67)"/><path class="cls-2" d="M88.59,71.56V97.13l1.08-1.08.46-.46L93.68,92v-25Zm.93,1.55,2-1.72v3.7l-2,1.72Zm0,14.72v-3.7l2-1.71v3.7Zm3.23,3-1.94,1.72v-3.7l1.94-1.72Zm-1.94-9.31v-3.7l1.94-1.71v3.7Z" transform="translate(-18.87 -14.67)"/><path class="cls-2" d="M68.22,82.49V87l4.5,4.49.6.6V78Zm3.52,2.74L69.8,87v-3.7l1.94-1.72Z" transform="translate(-18.87 -14.67)"/><path class="cls-3" d="M82.31,115.23a253.65,253.65,0,0,1,44.18,3.57c-9.82-4.74-25.94-7.84-44.18-7.84S48,114.06,38.12,118.8A253.85,253.85,0,0,1,82.31,115.23Z" transform="translate(-18.87 -14.67)"/></svg>