<svg id="Layer_1" data-name="Layer 1" xmlns="http://www.w3.org/2000/svg" viewBox="0 0 28 27.25"><defs><style>.cls-1{fill:#fff;}</style></defs><title>logo-nen-trang-co-chu</title><path class="cls-1" d="M2.25,23.82v2.05H1.6V23.82H1v-.49H2.86v.49Z" transform="translate(-1 -1.39)"/><path class="cls-1" d="M5.11,25.87H4.46V24.82H3.77v1.05H3.12V23.33h.65v1h.69v-1h.65Z" transform="translate(-1 -1.39)"/><path class="cls-1" d="M6,24.36h.66l0,.46H6v.55h.83v.5H5.34V23.33H6.83v.49H6Zm.63-1.17H6.28L6.09,23l-.19.23H5.54l.36-.47h.38Zm-.12-.33.22-.47h.45l-.4.47Z" transform="translate(-1 -1.39)"/><path class="cls-1" d="M9.74,25.8l-.22.05-.25,0H9a1,1,0,0,1-1.06-.58,1.88,1.88,0,0,1-.08-.63v-.17A1.41,1.41,0,0,1,8,23.78a1.09,1.09,0,0,1,1-.47,3,3,0,0,1,.64.07l.06.5A4.11,4.11,0,0,0,9,23.82a.65.65,0,0,0-.44.11c-.09.05-.13.22-.13.5v.4c0,.24,0,.38.12.43s.2.12.44.12h.11v-.56H8.75l.05-.46h.94Z" transform="translate(-1 -1.39)"/><path class="cls-1" d="M10.63,25.87H10V23.33h.64Z" transform="translate(-1 -1.39)"/><path class="cls-1" d="M13.08,24.52v.16a1.54,1.54,0,0,1-.09.63.81.81,0,0,1-.39.44,1.28,1.28,0,0,1-.65.14,1.28,1.28,0,0,1-.65-.14.86.86,0,0,1-.4-.44,1.8,1.8,0,0,1-.08-.63v-.16a1.41,1.41,0,0,1,.14-.74.87.87,0,0,1,.34-.32,1.28,1.28,0,0,1,.65-.15,1.3,1.3,0,0,1,.65.15.92.92,0,0,1,.33.32A1.32,1.32,0,0,1,13.08,24.52ZM12,25.38a.48.48,0,0,0,.39-.12c.06-.05.09-.2.09-.44v-.39c0-.28,0-.45-.1-.49a.54.54,0,0,0-.38-.11.52.52,0,0,0-.38.11q-.12.07-.12.48v.39c0,.24,0,.39.1.45S11.74,25.38,12,25.38Zm-.25-2.19.24-.52h.48l-.43.52Zm.9.55v-.18a.26.26,0,0,0,.2-.18h0a.27.27,0,0,1-.11-.06s0-.07,0-.14a.2.2,0,0,1,.06-.13s0,0,.08,0h.13a.08.08,0,0,1,.07,0,.08.08,0,0,1,0,.06.19.19,0,0,1,0,.08.13.13,0,0,1,0,.06v0A.68.68,0,0,1,12.6,23.74Z" transform="translate(-1 -1.39)"/><path class="cls-1" d="M13.91,25.87h-.65V23.33h.65Z" transform="translate(-1 -1.39)"/><path class="cls-1" d="M17,25.87h-.65l-.77-1.35v1.35h-.65V23.33h.65l.77,1.34V23.33H17Z" transform="translate(-1 -1.39)"/><path class="cls-1" d="M19.18,25.87h-.66V24.82h-.68v1.05h-.65V23.33h.65v1h.68v-1h.66Z" transform="translate(-1 -1.39)"/><path class="cls-1" d="M20.93,23.33l.93,2.54h-.72L21,25.48h-.88l-.12.39H19.3l.92-2.54Zm-.21-.14-.24-.52H20l.42.52ZM20.25,25h.65l-.32-1.1Z" transform="translate(-1 -1.39)"/><path class="cls-1" d="M24.33,23.86a1.51,1.51,0,0,1,0,.32v.12a1.14,1.14,0,0,1-.06.45.76.76,0,0,1-.77.41h-.26l-.19,0v.74h-.64V23.33l.86,0h.23a.75.75,0,0,1,.72.34A.9.9,0,0,1,24.33,23.86Zm-.55.27a.45.45,0,0,0-.06-.27.33.33,0,0,0-.19-.08,2.37,2.37,0,0,0-.45,0v.87a1.59,1.59,0,0,0,.47,0,.18.18,0,0,0,.15-.06.37.37,0,0,0,.08-.26Z" transform="translate(-1 -1.39)"/><path class="cls-1" d="M26.57,25.87h-.66V24.82h-.69v1.05h-.64V23.33h.64v1h.69v-1h.66Z" transform="translate(-1 -1.39)"/><path class="cls-1" d="M29,24.52v.16a1.8,1.8,0,0,1-.08.63.86.86,0,0,1-.4.44,1.28,1.28,0,0,1-.65.14,1.3,1.3,0,0,1-.65-.14.81.81,0,0,1-.39-.44,1.54,1.54,0,0,1-.09-.63v-.16a1.3,1.3,0,0,1,.15-.74.78.78,0,0,1,.33-.32,1.3,1.3,0,0,1,.65-.15,1.28,1.28,0,0,1,.65.15.87.87,0,0,1,.34.32A1.43,1.43,0,0,1,29,24.52Zm-.58-1.33h-.36L27.87,23l-.19.23h-.36l.36-.47h.38Zm-.55,2.19q.31,0,.39-.12c.07-.05.1-.2.1-.44v-.39c0-.28,0-.45-.11-.49a.52.52,0,0,0-.38-.11.54.54,0,0,0-.38.11q-.12.07-.12.48v.39a.63.63,0,0,0,.11.45Q27.56,25.38,27.87,25.38Zm.4-2.52.23-.47H29l-.4.47Z" transform="translate(-1 -1.39)"/><path class="cls-1" d="M6.2,27.39v1.25H5.81V27.39H5.44v-.3H6.57v.3Z" transform="translate(-1 -1.39)"/><path class="cls-1" d="M7.13,28.64H6.74V27.09h.39ZM6.82,27,7,26.69h.3L7,27Z" transform="translate(-1 -1.39)"/><path class="cls-1" d="M8.53,28.64H8.14l-.47-.82v.82h-.4V27.09h.4l.47.82v-.82h.39Z" transform="translate(-1 -1.39)"/><path class="cls-1" d="M9.21,28.23V28h.94v.28Z" transform="translate(-1 -1.39)"/><path class="cls-1" d="M11.6,27.39v1.25h-.4V27.39h-.36v-.3H12v.3Z" transform="translate(-1 -1.39)"/><path class="cls-1" d="M13.18,28.64l-.07-.23h-.54l-.07.23h-.44l.56-1.55h.44l.56,1.55Zm0-1.63H13l-.12-.14-.11.14h-.22l.22-.29H13Zm-.34.44-.2.67H13Z" transform="translate(-1 -1.39)"/><path class="cls-1" d="M15.32,28.64l-.14-1.09-.31,1.09h-.29l-.32-1.09-.13,1.09h-.45l.23-1.55h.6l.21.74.21-.74h.59l.24,1.55Z" transform="translate(-1 -1.39)"/><path class="cls-1" d="M16.42,28.23V28h.93v.28Z" transform="translate(-1 -1.39)"/><path class="cls-1" d="M18.5,27.39v1.25h-.4V27.39h-.36v-.3h1.13v.3Z" transform="translate(-1 -1.39)"/><path class="cls-1" d="M20.24,28.64h-.39V28h-.42v.64H19V27.09h.4v.63h.42v-.63h.39Z" transform="translate(-1 -1.39)"/><path class="cls-1" d="M21.32,27.09l.56,1.55h-.44l-.07-.23h-.54l-.07.23h-.44l.56-1.55ZM21.19,27,21,26.69h-.3L21,27Zm-.29,1.11h.4l-.2-.67Z" transform="translate(-1 -1.39)"/><path class="cls-1" d="M23.21,28.64h-.4l-.47-.82v.82H22V27.09h.39l.47.82v-.82h.4Z" transform="translate(-1 -1.39)"/><path class="cls-1" d="M24.56,28.64h-.4V28h-.42v.64h-.39V27.09h.39v.63h.42v-.63h.4Z" transform="translate(-1 -1.39)"/><path class="cls-1" d="M20.48,2.7A11.55,11.55,0,0,0,16.2,1.39L15.88,6.6,18.26,9Z" transform="translate(-1 -1.39)"/><path class="cls-1" d="M25.18,7.35a11.6,11.6,0,0,0-2.7-3.29l-3.19,6L21,11.7Z" transform="translate(-1 -1.39)"/><path class="cls-1" d="M17.58,16.74l9-3.53c0-.09,0-.18,0-.26a11.57,11.57,0,0,0-.56-3.55l-4.79,3.65-3.62,3.62Z" transform="translate(-1 -1.39)"/><path class="cls-1" d="M16.66,17.66l-.09.09,8.77.5a11.64,11.64,0,0,0,1.06-3.09l-9.33,2.1-.3.3Z" transform="translate(-1 -1.39)"/><path class="cls-1" d="M13.78,1.39A11.51,11.51,0,0,0,9.5,2.71l2.33,6.62L14.12,7Z" transform="translate(-1 -1.39)"/><path class="cls-1" d="M7.51,4.07a11.74,11.74,0,0,0-2.7,3.29l4.42,4.58,1.61-1.62Z" transform="translate(-1 -1.39)"/><path class="cls-1" d="M10.64,14.53,3.93,9.42A11.74,11.74,0,0,0,3.38,13c0,.09,0,.18,0,.27L13.15,17l-.45-.45Z" transform="translate(-1 -1.39)"/><path class="cls-1" d="M13.58,17.47l-.08-.08L3.6,15.16a11.64,11.64,0,0,0,1.06,3.09l9.18-.52-.15-.15Z" transform="translate(-1 -1.39)"/><path class="cls-1" d="M16.15,10.3l-.93-.82v7.78a.39.39,0,0,0,.27-.11l.09-.09.08-.08.49-.49V10.3Z" transform="translate(-1 -1.39)"/><polygon class="cls-1" points="16.08 9.6 16.08 14.17 16.12 14.13 17.02 13.24 17.02 10.42 16.08 9.6"/><polygon class="cls-1" points="13 12.17 12.64 11.85 12.35 11.6 12.35 14.17 12.64 14.46 12.64 12.57 13 12.89 13 14.81 13.02 14.84 13.29 15.1 13.29 12.42 13 12.17"/><path class="cls-1" d="M13.16,15.83l.72.72.09.09.44.44.72.72.09.09.38-.38.08-.08.71-.72.09-.09.72-.72,3.38-3.37L15.22,7.16,9.86,12.53ZM10.6,12.25,14.94,7.9a.39.39,0,0,1,.55,0l4.35,4.35a.39.39,0,0,1,0,.55L18,14.63l-.9.89,0,0-.65.65-.08.08-.2.2-.49.49-.08.08-.09.09a.39.39,0,0,1-.27.11h-.09a.39.39,0,0,1-.19-.1l-.5-.5-.15-.16L14,16.23l0,0-.06-.06-.3-.29-.29-.29-.11-.11-.82-.82L10.6,12.8A.38.38,0,0,1,10.6,12.25Z" transform="translate(-1 -1.39)"/><path class="cls-1" d="M14.29,10.3v6.19l.15.16.5.5a.39.39,0,0,0,.19.1h.09V9.48Zm.76,5.58-.59.52v-.68l.59-.52Zm0-1.25-.59.52v-.68l.59-.52Zm0-1.25-.59.51v-.68l.59-.51Zm0-1.26-.59.52V12l.59-.52Zm0-1.25-.59.52v-.68l.59-.52Z" transform="translate(-1 -1.39)"/><path class="cls-1" d="M16.15,11.81v4.68l.2-.2.08-.08.65-.65V11Zm.17.28.36-.31v.68l-.36.31Zm0,2.7v-.68l.36-.31v.67Zm.59.54-.35.31V15l.35-.32Zm-.35-1.7V13l.35-.32v.68Z" transform="translate(-1 -1.39)"/><path class="cls-1" d="M12.42,13.81v.82l.82.82.11.11V13Zm.65.5-.36.32V14l.36-.31Z" transform="translate(-1 -1.39)"/><path class="cls-1" d="M15,19.81a46.64,46.64,0,0,1,8.09.65A19.89,19.89,0,0,0,15,19a19.89,19.89,0,0,0-8.09,1.44A46.64,46.64,0,0,1,15,19.81Z" transform="translate(-1 -1.39)"/></svg>