<svg id="Layer_1" data-name="Layer 1" xmlns="http://www.w3.org/2000/svg" viewBox="0 0 152.9 34.18"><defs><style>.cls-1{fill:#6e1517;}</style></defs><title>logo-chi-chu</title><path class="cls-1" d="M16.7,16.16V27.37H13.14V16.16H9.86V13.47H20v2.69Z" transform="translate(-9.86 -8.31)"/><path class="cls-1" d="M32.32,27.37H28.74V21.62H25v5.75H21.45V13.46H25V19.1h3.75V13.46h3.58Z" transform="translate(-9.86 -8.31)"/><path class="cls-1" d="M37.15,19.1h3.62l-.22,2.53h-3.4v3H41.7v2.75H33.57V13.46H41.7v2.69H37.15Zm3.48-6.4h-2l-1-1.26-1,1.26h-2l2-2.56h2.05Zm-.7-1.81,1.24-2.58H43.6l-2.16,2.58Z" transform="translate(-9.86 -8.31)"/><path class="cls-1" d="M57.6,27c-.49.11-.9.2-1.24.26s-.9.13-1.37.16-1.11.07-1.69.07q-4.39,0-5.75-3.18a9.77,9.77,0,0,1-.44-3.45v-.91a7.46,7.46,0,0,1,.77-4q1.56-2.55,5.44-2.55a18.66,18.66,0,0,1,3.52.37l.3,2.74a22.1,22.1,0,0,0-3.47-.33,3.44,3.44,0,0,0-2.44.61c-.45.28-.68,1.19-.68,2.75v2.16c0,1.29.21,2.06.62,2.32.31.46,1.11.69,2.41.69h.64V21.62h-2l.28-2.52H57.6Z" transform="translate(-9.86 -8.31)"/><path class="cls-1" d="M62.47,27.37H58.93V13.46h3.54Z" transform="translate(-9.86 -8.31)"/><path class="cls-1" d="M75.8,20v.9a9.29,9.29,0,0,1-.44,3.42,4.71,4.71,0,0,1-2.18,2.42,8.62,8.62,0,0,1-7.08,0,4.77,4.77,0,0,1-2.17-2.42,8.92,8.92,0,0,1-.46-3.42V20c0-2,.26-3.31.79-4a4.63,4.63,0,0,1,1.84-1.78,8.42,8.42,0,0,1,7.08,0A4.75,4.75,0,0,1,75,15.94,7.43,7.43,0,0,1,75.8,20Zm-6.16,4.71c1.13,0,1.84-.25,2.14-.67s.52-1.09.52-2.41V19.49c0-1.55-.2-2.45-.58-2.69a3.78,3.78,0,0,0-4.15,0c-.44.27-.65,1.14-.65,2.6v2.14c0,1.34.19,2.16.57,2.47S68.51,24.66,69.64,24.68Zm-1.37-12L69.6,9.84h2.61L69.9,12.7Zm4.93,3v-1a1.59,1.59,0,0,0,1.11-1l-.1,0a1.26,1.26,0,0,1-.59-.31,1.11,1.11,0,0,1-.19-.76,1,1,0,0,1,.31-.72.91.91,0,0,1,.43-.17,1.6,1.6,0,0,1,.33,0l.37,0a1,1,0,0,1,.42.18.63.63,0,0,1,.22.36,2,2,0,0,1,0,.43,1.65,1.65,0,0,1,0,.32l-.06.22A3.68,3.68,0,0,1,73.2,15.71Z" transform="translate(-9.86 -8.31)"/><path class="cls-1" d="M80.34,27.37H76.8V13.46h3.54Z" transform="translate(-9.86 -8.31)"/><path class="cls-1" d="M97,27.37H93.46L89.27,20v7.42H85.73V13.47h3.54l4.19,7.33V13.47H97Z" transform="translate(-9.86 -8.31)"/><path class="cls-1" d="M109.13,27.37h-3.58V21.62H101.8v5.75H98.26V13.46h3.54V19.1h3.75V13.46h3.58Z" transform="translate(-9.86 -8.31)"/><path class="cls-1" d="M118.72,13.47l5,13.9h-3.91l-.65-2.14h-4.84l-.65,2.14H109.8l5-13.9Zm-1.17-.77-1.34-2.86H113.6l2.32,2.86Zm-2.55,10h3.53l-1.76-6Z" transform="translate(-9.86 -8.31)"/><path class="cls-1" d="M137.23,16.38a8,8,0,0,1,.17,1.73v.65a6.39,6.39,0,0,1-.32,2.47q-1,2.23-4.17,2.24a9.74,9.74,0,0,1-1.46-.07l-1-.12v4.09h-3.47V13.47l4.7-.09h1.27c1.94,0,3.26.62,3.93,1.84A4.53,4.53,0,0,1,137.23,16.38Zm-3,1.47a2.37,2.37,0,0,0-.34-1.48,1.64,1.64,0,0,0-1-.42,12.39,12.39,0,0,0-2.46.05v4.75a12.69,12.69,0,0,0,2.57.12,1.17,1.17,0,0,0,.84-.35,2,2,0,0,0,.43-1.42Z" transform="translate(-9.86 -8.31)"/><path class="cls-1" d="M149.47,27.37h-3.58V21.62h-3.75v5.75H138.6V13.46h3.54V19.1h3.75V13.46h3.58Z" transform="translate(-9.86 -8.31)"/><path class="cls-1" d="M162.76,20v.9a9.29,9.29,0,0,1-.44,3.42,4.76,4.76,0,0,1-2.18,2.42,8.62,8.62,0,0,1-7.08,0,4.77,4.77,0,0,1-2.17-2.42,8.92,8.92,0,0,1-.46-3.42V20c0-2,.26-3.31.79-4a4.63,4.63,0,0,1,1.84-1.78,8.42,8.42,0,0,1,7.08,0A4.75,4.75,0,0,1,162,15.94,7.43,7.43,0,0,1,162.76,20Zm-3.18-7.27h-1.94l-1-1.26-1,1.26h-2l2-2.56h2.07Zm-3,12c1.13,0,1.84-.25,2.14-.67s.52-1.09.52-2.41V19.49c0-1.55-.2-2.45-.58-2.69a3.78,3.78,0,0,0-4.15,0c-.44.27-.65,1.14-.65,2.6v2.14c0,1.34.19,2.16.57,2.47S155.47,24.66,156.6,24.68Zm2.19-13.79L160,8.31h2.42l-2.15,2.58Z" transform="translate(-9.86 -8.31)"/><path class="cls-1" d="M38.28,35.66V42.5H36.1V35.66h-2V34h6.2v1.64Z" transform="translate(-9.86 -8.31)"/><path class="cls-1" d="M43.35,42.5H41.2V34h2.15Zm-1.68-9,.81-1.74h1.59l-1.41,1.74Z" transform="translate(-9.86 -8.31)"/><path class="cls-1" d="M51,42.5H48.83L46.27,38V42.5H44.11V34h2.16l2.56,4.47V34H51Z" transform="translate(-9.86 -8.31)"/><path class="cls-1" d="M54.71,40.24V38.7h5.1v1.54Z" transform="translate(-9.86 -8.31)"/><path class="cls-1" d="M67.75,35.66V42.5H65.57V35.66h-2V34h6.19v1.64Z" transform="translate(-9.86 -8.31)"/><path class="cls-1" d="M76.39,42.5,76,41.19H73.06l-.4,1.31H70.27L73.34,34h2.37l3.08,8.48Zm0-9H75.17l-.64-.77-.62.77h-1.2L73.91,32h1.26ZM74.53,36l-1.09,3.65H75.6Z" transform="translate(-9.86 -8.31)"/><path class="cls-1" d="M88,42.5l-.72-6-1.73,6H84l-1.73-6-.72,6-2.46,0L80.35,34h3.3l1.13,4,1.15-4h3.22l1.29,8.49Z" transform="translate(-9.86 -8.31)"/><path class="cls-1" d="M94.05,40.24V38.7h5.11v1.54Z" transform="translate(-9.86 -8.31)"/><path class="cls-1" d="M105.43,35.66V42.5h-2.18V35.66h-2V34h6.2v1.64Z" transform="translate(-9.86 -8.31)"/><path class="cls-1" d="M115,42.5h-2.18V39h-2.29V42.5h-2.16V34h2.16v3.44h2.29V34H115Z" transform="translate(-9.86 -8.31)"/><path class="cls-1" d="M120.8,34l3.07,8.48h-2.38l-.4-1.31h-3l-.4,1.31h-2.38L118.43,34Zm-.72-.47-.81-1.74h-1.59l1.41,1.74Zm-1.55,6.09h2.16L119.61,36Z" transform="translate(-9.86 -8.31)"/><path class="cls-1" d="M131.13,42.5H129L126.4,38V42.5h-2.16V34h2.16L129,38.49V34h2.17Z" transform="translate(-9.86 -8.31)"/><path class="cls-1" d="M138.51,42.5h-2.18V39h-2.28V42.5h-2.16V34h2.16v3.44h2.28V34h2.18Z" transform="translate(-9.86 -8.31)"/></svg>