<?xml version="1.0" encoding="UTF-8"?>
<svg width="18px" height="14px" viewBox="0 0 18 14" version="1.1" xmlns="http://www.w3.org/2000/svg" xmlns:xlink="http://www.w3.org/1999/xlink">
    <!-- Generator: sketchtool 52 (66869) - http://www.bohemiancoding.com/sketch -->
    <title>9C85A184-69C2-42C8-9159-C0F8E3C10701</title>
    <desc>Created with sketchtool.</desc>
    <g id="Symbols" stroke="none" stroke-width="1" fill="none" fill-rule="evenodd" opacity="0.86">
        <g id="Mobile---Listing---Card-1" transform="translate(-61.000000, -297.000000)" fill="#30333A">
            <path d="M63.1756693,303.023104 L63.1756693,300.871167 C63.1756693,300.489767 63.4858723,300.179637 63.8669788,300.179637 L66.3304374,300.179637 C66.7116172,300.179637 67.0217469,300.489767 67.0217469,300.871167 C67.0217469,301.194774 67.2841193,301.457146 67.6077266,301.457146 C67.9313339,301.457146 68.1937063,301.194774 68.1937063,300.871167 C68.1937063,299.843725 67.3579528,299.007678 66.3304374,299.007678 L63.7788621,299.008777 C64.2554834,298.425434 64.843514,298.118088 64.8606539,298.109225 C65.1491024,297.964195 65.2654926,297.612827 65.1210486,297.324085 C64.9762384,297.034538 64.6240646,296.917269 64.3350301,297.062006 C64.2397352,297.109543 62.0037099,298.254621 62.0037099,300.597368 L62.0037099,303.023104 L61.5859797,303.023104 C61.2623724,303.023104 61,303.280642 61,303.604249 L61,305.616503 C61,307.726396 62.6348833,309.508947 64.8563323,310.049733 L74.3739607,310.049733 C76.5954097,309.508947 78.23,307.726396 78.23,305.616503 L78.23,303.60337 C78.2294873,303.280056 77.9674079,303.023104 77.6440203,303.023104 L63.1756693,303.023104 Z" id="Fill-1"></path>
        </g>
    </g>
</svg>