<?xml version="1.0" encoding="UTF-8"?>
<svg width="12px" height="12px" viewBox="0 0 12 12" version="1.1" xmlns="http://www.w3.org/2000/svg" xmlns:xlink="http://www.w3.org/1999/xlink">
    <!-- Generator: Sketch 61 (89581) - https://sketch.com -->
    <title>bathtub</title>
    <desc>Created with Sketch.</desc>
    <g id="Symbols" stroke="none" stroke-width="1" fill="none" fill-rule="evenodd">
        <g id="listing" transform="translate(-44.000000, -349.000000)" fill="#13202A" fill-rule="nonzero">
            <g id="Group-5" transform="translate(-1.000000, 240.245524)">
                <g id="Group-25" transform="translate(1.000000, 98.746803)">
                    <path d="M53.102,10.0076726 C54.038,10.0076726 54.8,10.7696726 54.8,11.7056726 L54.8,11.7056726 L54.8,16.6076726 L56,16.6076726 L56,20.2076726 C56,20.8676726 55.46,21.4076726 54.8,21.4076726 C54.8,21.7376726 54.53,22.0076726 54.2,22.0076726 L54.2,22.0076726 L45.8,22.0076726 C45.47,22.0076726 45.2,21.7376726 45.2,21.4076726 C44.54,21.4076726 44,20.8676726 44,20.2076726 L44,20.2076726 L44,16.6076726 L45.8,16.6076726 L45.8,16.1576726 C45.8,15.4136726 46.4,14.8136726 47.144,14.8076726 C47.354,14.8076726 47.558,14.8556726 47.744,14.9456726 C47.9,15.0176726 48.044,15.1196726 48.158,15.2456726 L48.158,15.2456726 L48.998,16.1756726 C49.148,16.3376726 49.31,16.4816726 49.49,16.6076726 L49.49,16.6076726 L53.6,16.6076726 L53.6,11.7056726 C53.6,11.4296726 53.378,11.2076726 53.102,11.2076726 C52.97,11.2076726 52.844,11.2616726 52.754,11.3516726 L52.754,11.3516726 L52.004,12.1016726 C52.028,12.2036726 52.046,12.2996726 52.046,12.4076726 C52.046,12.6476726 51.974,12.8696726 51.854,13.0556726 L51.854,13.0556726 L50.198,11.3996726 C50.384,11.2796726 50.606,11.2076726 50.846,11.2076726 C50.954,11.2076726 51.056,11.2256726 51.152,11.2556726 L51.152,11.2556726 L51.902,10.5056726 C52.22,10.1876726 52.652,10.0076726 53.102,10.0076726 Z M47,11.8076726 C47.6627417,11.8076726 48.2,12.3449309 48.2,13.0076726 C48.2,13.6704143 47.6627417,14.2076726 47,14.2076726 C46.3372583,14.2076726 45.8,13.6704143 45.8,13.0076726 C45.8,12.3449309 46.3372583,11.8076726 47,11.8076726 Z" id="bathtub"></path>
                </g>
            </g>
        </g>
    </g>
</svg>