<svg xmlns="http://www.w3.org/2000/svg" width="70" height="90" viewBox="0 0 70 90">
    <g fill="#337588" fill-rule="evenodd">
        <path d="M46.026 17.419c-.485-.49-1.026-.876-1.556-1.281L56.09 4.42l2.839 2.863L47.307 19c-.406-.54-.792-1.088-1.281-1.581M33.06 13.518V.406h4.662v13.118a17.778 17.778 0 0 0-4.662-.006M23.996 17.419c-.49.489-.878 1.035-1.286 1.573L11 7.283l2.863-2.863 11.71 11.709c-.538.41-1.086.797-1.577 1.29M61.156 45.968l-26.19-20.98-26.19 20.98v37.471c0 1.205.975 2.187 2.182 2.187h48.016a2.187 2.187 0 0 0 2.182-2.187V45.968zm-27.83-25.341c.453-.455 1.046-.645 1.64-.626.591-.02 1.186.171 1.639.626L69.28 46.805c.869.873.869 2.281 0 3.152-.87.87-2.278.87-3.146 0l-.613-.492v36.161A4.37 4.37 0 0 1 61.156 90H8.775a4.37 4.37 0 0 1-4.365-4.374V49.465l-.612.492c-.87.87-2.279.87-3.147 0a2.232 2.232 0 0 1 0-3.152l32.676-26.178z"/>
    </g>
</svg>
