<svg xmlns="http://www.w3.org/2000/svg" width="66" height="70" viewBox="0 0 66 70">
    <path fill="#337588" fill-rule="evenodd" d="M24.2 4.375c-8.505 0-15.4 7.834-15.4 17.5 0 9.665 6.895 17.501 15.4 17.501s15.4-7.836 15.4-17.5c0-9.667-6.895-17.5-15.4-17.5M4.4 48.125v8.75c0 4.83 3.94 8.751 8.8 8.751h22c4.86 0 8.8-3.92 8.8-8.75v-8.75c0-4.597-3.575-8.324-8.105-8.683-3.284 2.675-7.304 4.307-11.695 4.307-4.393 0-8.413-1.632-11.695-4.307-4.53.359-8.105 4.086-8.105 8.683m34.998-12.384c5.218 1.752 9.002 6.604 9.002 12.384v8.75C48.4 64.124 42.489 70 35.2 70h-22C5.91 70 0 64.124 0 56.877v-8.75c0-5.78 3.782-10.632 9.002-12.384A23.08 23.08 0 0 1 4.4 21.876C4.4 9.794 13.264 0 24.2 0 35.134 0 44 9.794 44 21.876a23.08 23.08 0 0 1-4.602 13.867M49.1 34.67c-.825-.853-1.774-1.564-2.801-2.17.262-.646.51-1.3.728-1.973C52.707 30.013 57.2 24.41 57.2 17.5c0-7.248-4.926-13.126-11-13.126-1.197 0-2.328.285-3.406.705a25.779 25.779 0 0 0-3.117-3.38C41.664.639 43.859 0 46.2 0c8.505 0 15.4 7.836 15.4 17.5 0 8.539-5.386 15.624-12.5 17.17m3.7 26.584v-4.377c4.86 0 8.8-3.918 8.8-8.75 0-4.835-3.94-8.75-8.8-8.75h-.807a13.08 13.08 0 0 0-2.618-4.378H52.8c7.29 0 13.2 5.88 13.2 13.128 0 7.247-5.91 13.127-13.2 13.127"/>
</svg>
