<?xml version="1.0" encoding="UTF-8"?>
<svg width="82px" height="70px" viewBox="0 0 82 70" version="1.1" xmlns="http://www.w3.org/2000/svg" xmlns:xlink="http://www.w3.org/1999/xlink">
    <!-- Generator: Sketch 48 (47235) - http://www.bohemiancoding.com/sketch -->
    <title>Group 6</title>
    <desc>Created with Sketch.</desc>
    <defs></defs>
    <g id="RV---Service---Rent" stroke="none" stroke-width="1" fill="none" fill-rule="evenodd" transform="translate(-259.000000, -653.000000)">
        <g id="Group-6" transform="translate(259.000000, 653.000000)" fill="#337588">
            <path d="M26.25,13.1228125 L61.25,13.1228125 L61.25,8.75 L26.25,8.75 L26.25,13.1228125 Z M30.6403125,39.388125 L56.8596875,39.388125 L56.8596875,21.8596875 L30.6403125,21.8596875 L30.6403125,39.388125 Z M26.25,43.7478125 L61.25,43.7478125 L61.25,17.5 L26.25,17.5 L26.25,43.7478125 Z M26.25,52.5021875 L48.9059278,52.5021875 L48.9059278,48.125 L26.25,48.125 L26.25,52.5021875 Z M26.25,61.25 L48.9059278,61.25 L48.9059278,56.8771875 L26.25,56.8771875 L26.25,61.25 Z M65.625,4.375 L21.875,4.3771875 L21.875,65.629375 L48.9963238,65.629375 C48.9963238,61.0041055 48.9963238,55.1238268 48.9963238,47.9885388 C55.8578717,47.9885388 61.4007637,47.9885388 65.625,47.9885388 L65.625,4.375 Z M17.5,61.254375 L17.5,56.879375 L17.5,35.0021875 L4.375,35 L4.375,61.25 C4.375,63.660625 6.3371875,65.625 8.75,65.625 L8.75,65.6315625 L17.5,65.6315625 L17.5,61.254375 Z M49,70 L19.6875,70 L15.3125,70 L10.9375,70 L8.75,70 C3.924375,70 0,66.075625 0,61.25 L0,30.6271875 L17.5,30.6271875 L17.5,0.0021875 L70,0 L70,48 L49,48 L49,70 Z" id="Combined-Shape"></path>
            <polygon id="Path" points="68.70514 66.1103437 68.8947368 66.2979375 65.8590335 69.33825 65.6909818 69.528 65.6780548 69.5172187 65.6694367 69.528 56 59.8550625 59.2274546 56.6228437 65.4776854 62.8802812 78.5943367 48 81.8217913 51.2300625"></polygon>
        </g>
    </g>
</svg>